# xmcd
#
# Track frame offsets:
#	206
#	17688
#	34741
#	51447
#	71682
#	91283
#	108533
#	129717
#	152072
#	168789
#
# Disc length: 2469 seconds
# Revision: 2
# Processed by: cddbd v1.5.2PL0 Copyright (c) Steve Scherf et al.
# Submitted via: dBpowerAMP V12.0
#
DISCID=8109a30a
DTITLE=Vernon Garrett - Half Past The Blues
DYEAR=1997
DGENRE=Soul
TTITLE0=Blues in Your Town
TTITLE1=You Bought Your Ticket (Take a Ride)
TTITLE2=Mixed Emotions
TTITLE3=Half Past The Blues
TTITLE4=Give me One More Chance
TTITLE5=Welfare Blues
TTITLE6=Teeny Weeny Touch of Your Love
TTITLE7=Something is Worrying my Baby
TTITLE8=Dill Pickle And a Peppermint Stick
TTITLE9=Help me When I'm Down
EXTD=
EXTT0=
EXTT1=
EXTT2=
EXTT3=
EXTT4=
EXTT5=
EXTT6=
EXTT7=
EXTT8=
EXTT9=
PLAYORDER=
